<svg width="316" height="88" viewBox="0 0 316 88" fill="none" xmlns="http://www.w3.org/2000/svg">
<path d="M18.981 75.9C19.163 75.9 19.3103 75.9563 19.423 76.069C19.5443 76.173 19.605 76.316 19.605 76.498C19.605 76.68 19.5443 76.823 19.423 76.927C19.3103 77.031 19.163 77.083 18.981 77.083H16.667V84.376C16.667 84.5493 16.602 84.6967 16.472 84.818C16.3507 84.9393 16.1947 85 16.004 85C15.8133 85 15.653 84.9393 15.523 84.818C15.4017 84.6967 15.341 84.5493 15.341 84.376V77.083H13.04C12.858 77.083 12.7063 77.031 12.585 76.927C12.4723 76.8143 12.416 76.667 12.416 76.485C12.416 76.3117 12.4723 76.173 12.585 76.069C12.7063 75.9563 12.858 75.9 13.04 75.9H18.981ZM23.63 78.032C23.8554 78.032 24.0504 78.0927 24.215 78.214C24.3797 78.3267 24.462 78.4697 24.462 78.643C24.462 78.851 24.4057 79.0113 24.293 79.124C24.189 79.228 24.059 79.28 23.903 79.28C23.825 79.28 23.708 79.254 23.552 79.202C23.37 79.1413 23.227 79.111 23.123 79.111C22.8544 79.111 22.59 79.2063 22.33 79.397C22.0787 79.579 21.8707 79.8347 21.706 80.164C21.55 80.4847 21.472 80.8443 21.472 81.243V84.376C21.472 84.5493 21.4114 84.6967 21.29 84.818C21.1774 84.9393 21.03 85 20.848 85C20.666 85 20.5187 84.9437 20.406 84.831C20.2934 84.7097 20.237 84.558 20.237 84.376V78.812C20.237 78.6387 20.2934 78.4913 20.406 78.37C20.5274 78.2487 20.6747 78.188 20.848 78.188C21.03 78.188 21.1774 78.2487 21.29 78.37C21.4114 78.4913 21.472 78.6387 21.472 78.812V79.475C21.6627 79.0503 21.9487 78.708 22.33 78.448C22.7114 78.1793 23.1447 78.0407 23.63 78.032ZM31.0448 78.097C31.2268 78.097 31.3741 78.1577 31.4868 78.279C31.6081 78.3917 31.6688 78.5433 31.6688 78.734V84.376C31.6688 84.5493 31.6081 84.6967 31.4868 84.818C31.3741 84.9393 31.2268 85 31.0448 85C30.8628 85 30.7155 84.9437 30.6028 84.831C30.4901 84.7097 30.4338 84.558 30.4338 84.376V84.038C30.2085 84.3413 29.9008 84.6013 29.5108 84.818C29.1208 85.026 28.7005 85.13 28.2498 85.13C27.6605 85.13 27.1231 84.9783 26.6378 84.675C26.1611 84.3717 25.7841 83.9513 25.5068 83.414C25.2381 82.868 25.1038 82.257 25.1038 81.581C25.1038 80.905 25.2381 80.2983 25.5068 79.761C25.7841 79.215 26.1611 78.7903 26.6378 78.487C27.1145 78.1837 27.6388 78.032 28.2108 78.032C28.6701 78.032 29.0948 78.1273 29.4848 78.318C29.8835 78.5087 30.1998 78.7513 30.4338 79.046V78.734C30.4338 78.552 30.4901 78.4003 30.6028 78.279C30.7155 78.1577 30.8628 78.097 31.0448 78.097ZM28.3928 83.986C28.8001 83.986 29.1598 83.882 29.4718 83.674C29.7925 83.466 30.0395 83.18 30.2128 82.816C30.3948 82.452 30.4858 82.0403 30.4858 81.581C30.4858 81.1303 30.3948 80.723 30.2128 80.359C30.0395 79.995 29.7925 79.709 29.4718 79.501C29.1598 79.2843 28.8001 79.176 28.3928 79.176C27.9855 79.176 27.6215 79.28 27.3008 79.488C26.9888 79.696 26.7418 79.982 26.5598 80.346C26.3865 80.71 26.2998 81.1217 26.2998 81.581C26.2998 82.0403 26.3865 82.452 26.5598 82.816C26.7418 83.18 26.9888 83.466 27.3008 83.674C27.6215 83.882 27.9855 83.986 28.3928 83.986ZM37.0411 78.032C38.6011 78.032 39.3811 78.968 39.3811 80.84V84.376C39.3811 84.5493 39.3205 84.6967 39.1991 84.818C39.0865 84.9393 38.9391 85 38.7571 85C38.5838 85 38.4365 84.9393 38.3151 84.818C38.2025 84.6967 38.1461 84.5493 38.1461 84.376V80.853C38.1461 80.3417 38.0291 79.9343 37.7951 79.631C37.5611 79.3277 37.1798 79.176 36.6511 79.176C36.3045 79.176 35.9881 79.254 35.7021 79.41C35.4248 79.5573 35.2038 79.761 35.0391 80.021C34.8831 80.2723 34.8051 80.5497 34.8051 80.853V84.376C34.8051 84.5493 34.7445 84.6967 34.6231 84.818C34.5105 84.9393 34.3631 85 34.1811 85C33.9991 85 33.8518 84.9437 33.7391 84.831C33.6265 84.7097 33.5701 84.558 33.5701 84.376V78.812C33.5701 78.6387 33.6265 78.4913 33.7391 78.37C33.8605 78.2487 34.0078 78.188 34.1811 78.188C34.3631 78.188 34.5105 78.2487 34.6231 78.37C34.7445 78.4913 34.8051 78.6387 34.8051 78.812V79.267C35.0305 78.9203 35.3425 78.63 35.7411 78.396C36.1485 78.1533 36.5818 78.032 37.0411 78.032ZM40.9004 83.934C40.8224 83.8127 40.7834 83.6957 40.7834 83.583C40.7834 83.4097 40.8744 83.2623 41.0564 83.141C41.1431 83.0803 41.2428 83.05 41.3554 83.05C41.5114 83.05 41.6544 83.115 41.7844 83.245C42.0444 83.5397 42.3218 83.7607 42.6164 83.908C42.9198 84.0553 43.2794 84.129 43.6954 84.129C44.0248 84.1203 44.3151 84.0467 44.5664 83.908C44.8178 83.7607 44.9434 83.5267 44.9434 83.206C44.9434 82.9113 44.8134 82.686 44.5534 82.53C44.3021 82.374 43.9294 82.231 43.4354 82.101C42.9501 81.971 42.5471 81.8367 42.2264 81.698C41.9058 81.5507 41.6328 81.3427 41.4074 81.074C41.1908 80.7967 41.0824 80.437 41.0824 79.995C41.0824 79.605 41.1908 79.2627 41.4074 78.968C41.6328 78.6733 41.9274 78.4437 42.2914 78.279C42.6641 78.1143 43.0671 78.032 43.5004 78.032C43.9164 78.032 44.3281 78.11 44.7354 78.266C45.1514 78.422 45.4894 78.6603 45.7494 78.981C45.8534 79.1023 45.9054 79.228 45.9054 79.358C45.9054 79.4967 45.8361 79.631 45.6974 79.761C45.6108 79.839 45.5024 79.878 45.3724 79.878C45.2164 79.878 45.0908 79.826 44.9954 79.722C44.8134 79.514 44.5881 79.3537 44.3194 79.241C44.0594 79.1283 43.7691 79.072 43.4484 79.072C43.1191 79.072 42.8374 79.1413 42.6034 79.28C42.3781 79.41 42.2654 79.6353 42.2654 79.956C42.2741 80.2593 42.4041 80.4847 42.6554 80.632C42.9154 80.7793 43.3098 80.9223 43.8384 81.061C44.2978 81.1823 44.6791 81.3123 44.9824 81.451C45.2858 81.5897 45.5414 81.7977 45.7494 82.075C45.9574 82.3437 46.0614 82.699 46.0614 83.141C46.0614 83.5483 45.9444 83.9037 45.7104 84.207C45.4764 84.5017 45.1688 84.7313 44.7874 84.896C44.4148 85.052 44.0161 85.13 43.5914 85.13C43.0454 85.13 42.5384 85.0347 42.0704 84.844C41.6111 84.6533 41.2211 84.35 40.9004 83.934ZM50.4627 76.498C50.1767 76.498 49.9644 76.5847 49.8257 76.758C49.6957 76.9313 49.6307 77.1437 49.6307 77.395V78.305H50.9177C51.0911 78.305 51.2297 78.3613 51.3337 78.474C51.4464 78.578 51.5027 78.7123 51.5027 78.877C51.5027 79.0417 51.4464 79.176 51.3337 79.28C51.2297 79.384 51.0911 79.436 50.9177 79.436H49.6307V84.376C49.6307 84.5493 49.5701 84.6967 49.4487 84.818C49.3361 84.9393 49.1887 85 49.0067 85C48.8334 85 48.6861 84.9393 48.5647 84.818C48.4521 84.6967 48.3957 84.5493 48.3957 84.376V79.436H47.5897C47.4251 79.436 47.2864 79.384 47.1737 79.28C47.0611 79.176 47.0047 79.0417 47.0047 78.877C47.0047 78.7123 47.0611 78.578 47.1737 78.474C47.2864 78.3613 47.4251 78.305 47.5897 78.305H48.3957V77.395C48.3957 76.7883 48.5907 76.3073 48.9807 75.952C49.3707 75.588 49.9211 75.406 50.6317 75.406C50.9264 75.406 51.1864 75.4623 51.4117 75.575C51.6371 75.679 51.7497 75.8393 51.7497 76.056C51.7497 76.2207 51.6977 76.3593 51.5937 76.472C51.4984 76.576 51.3814 76.628 51.2427 76.628C51.2081 76.628 51.1127 76.6107 50.9567 76.576C50.7661 76.524 50.6014 76.498 50.4627 76.498ZM58.6612 81.334C58.6525 81.49 58.5875 81.6243 58.4662 81.737C58.3448 81.841 58.2018 81.893 58.0372 81.893H53.4612C53.5218 82.5257 53.7602 83.0327 54.1762 83.414C54.6008 83.7953 55.1165 83.986 55.7232 83.986C56.1392 83.986 56.4772 83.9253 56.7372 83.804C56.9972 83.6827 57.2268 83.5267 57.4262 83.336C57.5562 83.258 57.6818 83.219 57.8032 83.219C57.9505 83.219 58.0718 83.271 58.1672 83.375C58.2712 83.479 58.3232 83.6003 58.3232 83.739C58.3232 83.921 58.2365 84.0857 58.0632 84.233C57.8118 84.4843 57.4782 84.6967 57.0622 84.87C56.6462 85.0433 56.2215 85.13 55.7882 85.13C55.0862 85.13 54.4665 84.9827 53.9292 84.688C53.4005 84.3933 52.9888 83.9817 52.6942 83.453C52.4082 82.9243 52.2652 82.3263 52.2652 81.659C52.2652 80.931 52.4125 80.294 52.7072 79.748C53.0105 79.1933 53.4048 78.7687 53.8902 78.474C54.3842 78.1793 54.9128 78.032 55.4762 78.032C56.0308 78.032 56.5508 78.175 57.0362 78.461C57.5215 78.747 57.9115 79.1413 58.2062 79.644C58.5008 80.1467 58.6525 80.71 58.6612 81.334ZM55.4762 79.176C54.9908 79.176 54.5705 79.3147 54.2152 79.592C53.8598 79.8607 53.6258 80.281 53.5132 80.853H57.3482V80.749C57.3048 80.2897 57.0968 79.9127 56.7242 79.618C56.3602 79.3233 55.9442 79.176 55.4762 79.176ZM63.5532 78.032C63.7786 78.032 63.9736 78.0927 64.1382 78.214C64.3029 78.3267 64.3852 78.4697 64.3852 78.643C64.3852 78.851 64.3289 79.0113 64.2162 79.124C64.1122 79.228 63.9822 79.28 63.8262 79.28C63.7482 79.28 63.6312 79.254 63.4752 79.202C63.2932 79.1413 63.1502 79.111 63.0462 79.111C62.7776 79.111 62.5132 79.2063 62.2532 79.397C62.0019 79.579 61.7939 79.8347 61.6292 80.164C61.4732 80.4847 61.3952 80.8443 61.3952 81.243V84.376C61.3952 84.5493 61.3346 84.6967 61.2132 84.818C61.1006 84.9393 60.9532 85 60.7712 85C60.5892 85 60.4419 84.9437 60.3292 84.831C60.2166 84.7097 60.1602 84.558 60.1602 84.376V78.812C60.1602 78.6387 60.2166 78.4913 60.3292 78.37C60.4506 78.2487 60.5979 78.188 60.7712 78.188C60.9532 78.188 61.1006 78.2487 61.2132 78.37C61.3346 78.4913 61.3952 78.6387 61.3952 78.812V79.475C61.5859 79.0503 61.8719 78.708 62.2532 78.448C62.6346 78.1793 63.0679 78.0407 63.5532 78.032Z" fill="#8438FF"/>
<g filter="url(#filter0_d_309_127)">
<path d="M12 28C12 16.9543 20.9543 8 32 8H40C51.0457 8 60 16.9543 60 28V36C60 47.0457 51.0457 56 40 56H32C20.9543 56 12 47.0457 12 36V28Z" fill="white"/>
<path d="M36.0058 43.6482C42.4357 43.6482 47.6482 38.4357 47.6482 32.0058C47.6482 25.5759 42.4357 20.3634 36.0058 20.3634C29.5759 20.3634 24.3634 25.5759 24.3634 32.0058C24.3634 38.4357 29.5759 43.6482 36.0058 43.6482Z" stroke="#2F1155" stroke-width="1.5" stroke-linecap="round" stroke-linejoin="round"/>
<path d="M29.1601 22.6919L38.6836 32.2387L38.7069 26.9414" stroke="#2F1155" stroke-width="1.5" stroke-linecap="round" stroke-linejoin="round"/>
<path d="M42.8399 41.3081L33.3164 31.773L33.2932 37.0586" stroke="#2F1155" stroke-width="1.5" stroke-linecap="round" stroke-linejoin="round"/>
</g>
<path d="M98.719 75.9C99.1783 75.9 99.603 76.0257 99.993 76.277C100.383 76.5197 100.691 76.8533 100.916 77.278C101.15 77.7027 101.267 78.1707 101.267 78.682C101.267 79.1933 101.15 79.6657 100.916 80.099C100.691 80.5323 100.383 80.8747 99.993 81.126C99.603 81.3773 99.1783 81.503 98.719 81.503H96.275V84.376C96.275 84.5493 96.2187 84.6967 96.106 84.818C95.9933 84.9393 95.8503 85 95.677 85C95.495 85 95.3477 84.9437 95.235 84.831C95.131 84.7097 95.079 84.558 95.079 84.376V76.524C95.079 76.3507 95.1397 76.2033 95.261 76.082C95.3823 75.9607 95.5297 75.9 95.703 75.9H98.719ZM98.719 80.32C98.953 80.32 99.1697 80.2463 99.369 80.099C99.5683 79.943 99.7243 79.7393 99.837 79.488C99.9583 79.2367 100.019 78.968 100.019 78.682C100.019 78.24 99.889 77.8673 99.629 77.564C99.3777 77.252 99.0743 77.096 98.719 77.096H96.275V80.32H98.719ZM108.244 78.097C108.426 78.097 108.574 78.1577 108.686 78.279C108.808 78.3917 108.868 78.5433 108.868 78.734V84.376C108.868 84.5493 108.808 84.6967 108.686 84.818C108.574 84.9393 108.426 85 108.244 85C108.062 85 107.915 84.9437 107.802 84.831C107.69 84.7097 107.633 84.558 107.633 84.376V84.038C107.408 84.3413 107.1 84.6013 106.71 84.818C106.32 85.026 105.9 85.13 105.449 85.13C104.86 85.13 104.323 84.9783 103.837 84.675C103.361 84.3717 102.984 83.9513 102.706 83.414C102.438 82.868 102.303 82.257 102.303 81.581C102.303 80.905 102.438 80.2983 102.706 79.761C102.984 79.215 103.361 78.7903 103.837 78.487C104.314 78.1837 104.838 78.032 105.41 78.032C105.87 78.032 106.294 78.1273 106.684 78.318C107.083 78.5087 107.399 78.7513 107.633 79.046V78.734C107.633 78.552 107.69 78.4003 107.802 78.279C107.915 78.1577 108.062 78.097 108.244 78.097ZM105.592 83.986C106 83.986 106.359 83.882 106.671 83.674C106.992 83.466 107.239 83.18 107.412 82.816C107.594 82.452 107.685 82.0403 107.685 81.581C107.685 81.1303 107.594 80.723 107.412 80.359C107.239 79.995 106.992 79.709 106.671 79.501C106.359 79.2843 106 79.176 105.592 79.176C105.185 79.176 104.821 79.28 104.5 79.488C104.188 79.696 103.941 79.982 103.759 80.346C103.586 80.71 103.499 81.1217 103.499 81.581C103.499 82.0403 103.586 82.452 103.759 82.816C103.941 83.18 104.188 83.466 104.5 83.674C104.821 83.882 105.185 83.986 105.592 83.986ZM115.687 78.123C115.869 78.123 116.017 78.1837 116.129 78.305C116.251 78.4263 116.311 78.5737 116.311 78.747V84.363C116.311 85.4463 116.012 86.2567 115.414 86.794C114.816 87.3313 114.028 87.6 113.048 87.6C112.728 87.6 112.411 87.5697 112.099 87.509C111.787 87.4483 111.532 87.366 111.332 87.262C111.012 87.1147 110.851 86.9153 110.851 86.664C110.851 86.6207 110.86 86.5643 110.877 86.495C110.929 86.3477 111.003 86.235 111.098 86.157C111.194 86.079 111.302 86.04 111.423 86.04C111.493 86.04 111.558 86.053 111.618 86.079C111.887 86.2003 112.125 86.2957 112.333 86.365C112.541 86.4343 112.784 86.469 113.061 86.469C114.405 86.469 115.076 85.78 115.076 84.402V84.142C114.842 84.454 114.539 84.6967 114.166 84.87C113.802 85.0433 113.382 85.13 112.905 85.13C112.186 85.13 111.623 84.9003 111.215 84.441C110.817 83.9817 110.617 83.3793 110.617 82.634V78.747C110.617 78.565 110.674 78.4177 110.786 78.305C110.899 78.1837 111.046 78.123 111.228 78.123C111.41 78.123 111.558 78.1837 111.67 78.305C111.792 78.4263 111.852 78.5737 111.852 78.747V82.309C111.852 82.881 111.978 83.3057 112.229 83.583C112.481 83.8517 112.862 83.986 113.373 83.986C113.867 83.986 114.275 83.83 114.595 83.518C114.916 83.206 115.076 82.803 115.076 82.309V78.747C115.076 78.565 115.133 78.4177 115.245 78.305C115.358 78.1837 115.505 78.123 115.687 78.123ZM126.024 78.071C127.54 78.071 128.299 79.0157 128.299 80.905V84.376C128.299 84.558 128.242 84.7097 128.13 84.831C128.017 84.9437 127.87 85 127.688 85C127.506 85 127.354 84.9393 127.233 84.818C127.12 84.6967 127.064 84.5493 127.064 84.376V80.918C127.064 79.7827 126.587 79.215 125.634 79.215C125.296 79.215 124.988 79.293 124.711 79.449C124.442 79.5963 124.23 79.8 124.074 80.06C123.926 80.32 123.853 80.606 123.853 80.918V84.376C123.853 84.5493 123.792 84.6967 123.671 84.818C123.558 84.9393 123.411 85 123.229 85C123.047 85 122.899 84.9437 122.787 84.831C122.674 84.7097 122.618 84.558 122.618 84.376V80.905C122.618 80.3937 122.509 79.9863 122.293 79.683C122.076 79.371 121.716 79.215 121.214 79.215C120.702 79.215 120.278 79.3797 119.94 79.709C119.61 80.0297 119.446 80.4283 119.446 80.905V84.376C119.446 84.5493 119.385 84.6967 119.264 84.818C119.151 84.9393 119.004 85 118.822 85C118.64 85 118.492 84.9437 118.38 84.831C118.267 84.7097 118.211 84.558 118.211 84.376V78.812C118.211 78.6387 118.267 78.4913 118.38 78.37C118.501 78.2487 118.648 78.188 118.822 78.188C119.004 78.188 119.151 78.2487 119.264 78.37C119.385 78.4913 119.446 78.6387 119.446 78.812V79.267C119.671 78.929 119.97 78.6473 120.343 78.422C120.724 78.188 121.136 78.071 121.578 78.071C122.652 78.071 123.35 78.5477 123.671 79.501C123.861 79.137 124.178 78.8077 124.62 78.513C125.062 78.2183 125.53 78.071 126.024 78.071ZM136.189 81.334C136.181 81.49 136.116 81.6243 135.994 81.737C135.873 81.841 135.73 81.893 135.565 81.893H130.989C131.05 82.5257 131.288 83.0327 131.704 83.414C132.129 83.7953 132.645 83.986 133.251 83.986C133.667 83.986 134.005 83.9253 134.265 83.804C134.525 83.6827 134.755 83.5267 134.954 83.336C135.084 83.258 135.21 83.219 135.331 83.219C135.479 83.219 135.6 83.271 135.695 83.375C135.799 83.479 135.851 83.6003 135.851 83.739C135.851 83.921 135.765 84.0857 135.591 84.233C135.34 84.4843 135.006 84.6967 134.59 84.87C134.174 85.0433 133.75 85.13 133.316 85.13C132.614 85.13 131.995 84.9827 131.457 84.688C130.929 84.3933 130.517 83.9817 130.222 83.453C129.936 82.9243 129.793 82.3263 129.793 81.659C129.793 80.931 129.941 80.294 130.235 79.748C130.539 79.1933 130.933 78.7687 131.418 78.474C131.912 78.1793 132.441 78.032 133.004 78.032C133.559 78.032 134.079 78.175 134.564 78.461C135.05 78.747 135.44 79.1413 135.734 79.644C136.029 80.1467 136.181 80.71 136.189 81.334ZM133.004 79.176C132.519 79.176 132.099 79.3147 131.743 79.592C131.388 79.8607 131.154 80.281 131.041 80.853H134.876V80.749C134.833 80.2897 134.625 79.9127 134.252 79.618C133.888 79.3233 133.472 79.176 133.004 79.176ZM141.159 78.032C142.719 78.032 143.499 78.968 143.499 80.84V84.376C143.499 84.5493 143.439 84.6967 143.317 84.818C143.205 84.9393 143.057 85 142.875 85C142.702 85 142.555 84.9393 142.433 84.818C142.321 84.6967 142.264 84.5493 142.264 84.376V80.853C142.264 80.3417 142.147 79.9343 141.913 79.631C141.679 79.3277 141.298 79.176 140.769 79.176C140.423 79.176 140.106 79.254 139.82 79.41C139.543 79.5573 139.322 79.761 139.157 80.021C139.001 80.2723 138.923 80.5497 138.923 80.853V84.376C138.923 84.5493 138.863 84.6967 138.741 84.818C138.629 84.9393 138.481 85 138.299 85C138.117 85 137.97 84.9437 137.857 84.831C137.745 84.7097 137.688 84.558 137.688 84.376V78.812C137.688 78.6387 137.745 78.4913 137.857 78.37C137.979 78.2487 138.126 78.188 138.299 78.188C138.481 78.188 138.629 78.2487 138.741 78.37C138.863 78.4913 138.923 78.6387 138.923 78.812V79.267C139.149 78.9203 139.461 78.63 139.859 78.396C140.267 78.1533 140.7 78.032 141.159 78.032ZM147.255 79.397V83.271C147.255 83.7043 147.45 83.921 147.84 83.921C147.9 83.921 147.983 83.908 148.087 83.882C148.191 83.8473 148.273 83.83 148.334 83.83C148.446 83.83 148.542 83.8777 148.62 83.973C148.698 84.0683 148.737 84.1897 148.737 84.337C148.737 84.519 148.633 84.675 148.425 84.805C148.217 84.935 147.983 85 147.723 85C147.437 85 147.172 84.9697 146.93 84.909C146.696 84.8483 146.483 84.6967 146.293 84.454C146.111 84.2027 146.02 83.8257 146.02 83.323V79.397H145.266C145.101 79.397 144.962 79.345 144.85 79.241C144.746 79.1283 144.694 78.9897 144.694 78.825C144.694 78.6603 144.746 78.526 144.85 78.422C144.962 78.318 145.101 78.266 145.266 78.266H146.02V77.174C146.02 77.0007 146.076 76.8533 146.189 76.732C146.31 76.6107 146.462 76.55 146.644 76.55C146.817 76.55 146.96 76.6107 147.073 76.732C147.194 76.8533 147.255 77.0007 147.255 77.174V78.266H148.334C148.498 78.266 148.633 78.3223 148.737 78.435C148.849 78.539 148.906 78.6733 148.906 78.838C148.906 79.0027 148.849 79.137 148.737 79.241C148.633 79.345 148.498 79.397 148.334 79.397H147.255Z" fill="#8438FF"/>
<g filter="url(#filter1_d_309_127)">
<path d="M95 28C95 16.9543 103.954 8 115 8H123C134.046 8 143 16.9543 143 28V36C143 47.0457 134.046 56 123 56H115C103.954 56 95 47.0457 95 36V28Z" fill="white"/>
<path d="M124.18 28.3833C128.38 28.745 130.095 30.9033 130.095 35.6283V35.78C130.095 40.995 128.007 43.0833 122.792 43.0833H115.197C109.982 43.0833 107.893 40.995 107.893 35.78V35.6283C107.893 30.9383 109.585 28.78 113.715 28.395" stroke="#2F1155" stroke-width="1.5" stroke-linecap="round" stroke-linejoin="round"/>
<path d="M119 35.5V22.2233" stroke="#2F1155" stroke-width="1.5" stroke-linecap="round" stroke-linejoin="round"/>
<path d="M122.908 24.825L119 20.9167L115.092 24.825" stroke="#2F1155" stroke-width="1.5" stroke-linecap="round" stroke-linejoin="round"/>
</g>
<path d="M187.719 75.9C188.178 75.9 188.603 76.0257 188.993 76.277C189.383 76.5197 189.691 76.8533 189.916 77.278C190.15 77.7027 190.267 78.1707 190.267 78.682C190.267 79.1933 190.15 79.6657 189.916 80.099C189.691 80.5323 189.383 80.8747 188.993 81.126C188.603 81.3773 188.178 81.503 187.719 81.503H185.275V84.376C185.275 84.5493 185.219 84.6967 185.106 84.818C184.993 84.9393 184.85 85 184.677 85C184.495 85 184.348 84.9437 184.235 84.831C184.131 84.7097 184.079 84.558 184.079 84.376V76.524C184.079 76.3507 184.14 76.2033 184.261 76.082C184.382 75.9607 184.53 75.9 184.703 75.9H187.719ZM187.719 80.32C187.953 80.32 188.17 80.2463 188.369 80.099C188.568 79.943 188.724 79.7393 188.837 79.488C188.958 79.2367 189.019 78.968 189.019 78.682C189.019 78.24 188.889 77.8673 188.629 77.564C188.378 77.252 188.074 77.096 187.719 77.096H185.275V80.32H187.719ZM197.244 78.097C197.426 78.097 197.574 78.1577 197.686 78.279C197.808 78.3917 197.868 78.5433 197.868 78.734V84.376C197.868 84.5493 197.808 84.6967 197.686 84.818C197.574 84.9393 197.426 85 197.244 85C197.062 85 196.915 84.9437 196.802 84.831C196.69 84.7097 196.633 84.558 196.633 84.376V84.038C196.408 84.3413 196.1 84.6013 195.71 84.818C195.32 85.026 194.9 85.13 194.449 85.13C193.86 85.13 193.323 84.9783 192.837 84.675C192.361 84.3717 191.984 83.9513 191.706 83.414C191.438 82.868 191.303 82.257 191.303 81.581C191.303 80.905 191.438 80.2983 191.706 79.761C191.984 79.215 192.361 78.7903 192.837 78.487C193.314 78.1837 193.838 78.032 194.41 78.032C194.87 78.032 195.294 78.1273 195.684 78.318C196.083 78.5087 196.399 78.7513 196.633 79.046V78.734C196.633 78.552 196.69 78.4003 196.802 78.279C196.915 78.1577 197.062 78.097 197.244 78.097ZM194.592 83.986C195 83.986 195.359 83.882 195.671 83.674C195.992 83.466 196.239 83.18 196.412 82.816C196.594 82.452 196.685 82.0403 196.685 81.581C196.685 81.1303 196.594 80.723 196.412 80.359C196.239 79.995 195.992 79.709 195.671 79.501C195.359 79.2843 195 79.176 194.592 79.176C194.185 79.176 193.821 79.28 193.5 79.488C193.188 79.696 192.941 79.982 192.759 80.346C192.586 80.71 192.499 81.1217 192.499 81.581C192.499 82.0403 192.586 82.452 192.759 82.816C192.941 83.18 193.188 83.466 193.5 83.674C193.821 83.882 194.185 83.986 194.592 83.986ZM204.687 78.123C204.869 78.123 205.017 78.1837 205.129 78.305C205.251 78.4263 205.311 78.5737 205.311 78.747V84.363C205.311 85.4463 205.012 86.2567 204.414 86.794C203.816 87.3313 203.028 87.6 202.048 87.6C201.728 87.6 201.411 87.5697 201.099 87.509C200.787 87.4483 200.532 87.366 200.332 87.262C200.012 87.1147 199.851 86.9153 199.851 86.664C199.851 86.6207 199.86 86.5643 199.877 86.495C199.929 86.3477 200.003 86.235 200.098 86.157C200.194 86.079 200.302 86.04 200.423 86.04C200.493 86.04 200.558 86.053 200.618 86.079C200.887 86.2003 201.125 86.2957 201.333 86.365C201.541 86.4343 201.784 86.469 202.061 86.469C203.405 86.469 204.076 85.78 204.076 84.402V84.142C203.842 84.454 203.539 84.6967 203.166 84.87C202.802 85.0433 202.382 85.13 201.905 85.13C201.186 85.13 200.623 84.9003 200.215 84.441C199.817 83.9817 199.617 83.3793 199.617 82.634V78.747C199.617 78.565 199.674 78.4177 199.786 78.305C199.899 78.1837 200.046 78.123 200.228 78.123C200.41 78.123 200.558 78.1837 200.67 78.305C200.792 78.4263 200.852 78.5737 200.852 78.747V82.309C200.852 82.881 200.978 83.3057 201.229 83.583C201.481 83.8517 201.862 83.986 202.373 83.986C202.867 83.986 203.275 83.83 203.595 83.518C203.916 83.206 204.076 82.803 204.076 82.309V78.747C204.076 78.565 204.133 78.4177 204.245 78.305C204.358 78.1837 204.505 78.123 204.687 78.123ZM213.595 81.594C213.595 82.27 213.444 82.8767 213.14 83.414C212.837 83.9513 212.421 84.3717 211.892 84.675C211.372 84.9783 210.796 85.13 210.163 85.13C209.531 85.13 208.95 84.9783 208.421 84.675C207.901 84.3717 207.49 83.9513 207.186 83.414C206.883 82.8767 206.731 82.27 206.731 81.594C206.731 80.918 206.883 80.307 207.186 79.761C207.49 79.215 207.901 78.7903 208.421 78.487C208.95 78.1837 209.531 78.032 210.163 78.032C210.796 78.032 211.372 78.1837 211.892 78.487C212.421 78.7903 212.837 79.215 213.14 79.761C213.444 80.307 213.595 80.918 213.595 81.594ZM212.36 81.594C212.36 81.126 212.261 80.71 212.061 80.346C211.871 79.9733 211.606 79.6873 211.268 79.488C210.939 79.28 210.571 79.176 210.163 79.176C209.756 79.176 209.383 79.28 209.045 79.488C208.716 79.6873 208.452 79.9733 208.252 80.346C208.062 80.71 207.966 81.126 207.966 81.594C207.966 82.0533 208.062 82.465 208.252 82.829C208.452 83.193 208.716 83.479 209.045 83.687C209.383 83.8863 209.756 83.986 210.163 83.986C210.571 83.986 210.939 83.8863 211.268 83.687C211.606 83.479 211.871 83.193 212.061 82.829C212.261 82.465 212.36 82.0533 212.36 81.594ZM220.166 78.188C220.348 78.188 220.495 78.2487 220.608 78.37C220.729 78.4913 220.79 78.6387 220.79 78.812V82.27C220.79 83.1713 220.539 83.8733 220.036 84.376C219.542 84.87 218.84 85.117 217.93 85.117C217.029 85.117 216.331 84.87 215.837 84.376C215.343 83.8733 215.096 83.1713 215.096 82.27V78.812C215.096 78.6387 215.152 78.4913 215.265 78.37C215.386 78.2487 215.534 78.188 215.707 78.188C215.889 78.188 216.036 78.2487 216.149 78.37C216.27 78.4913 216.331 78.6387 216.331 78.812V82.27C216.331 83.4053 216.864 83.973 217.93 83.973C218.459 83.973 218.862 83.83 219.139 83.544C219.416 83.258 219.555 82.8333 219.555 82.27V78.812C219.555 78.6387 219.611 78.4913 219.724 78.37C219.845 78.2487 219.993 78.188 220.166 78.188ZM224.548 79.397V83.271C224.548 83.7043 224.743 83.921 225.133 83.921C225.194 83.921 225.276 83.908 225.38 83.882C225.484 83.8473 225.566 83.83 225.627 83.83C225.74 83.83 225.835 83.8777 225.913 83.973C225.991 84.0683 226.03 84.1897 226.03 84.337C226.03 84.519 225.926 84.675 225.718 84.805C225.51 84.935 225.276 85 225.016 85C224.73 85 224.466 84.9697 224.223 84.909C223.989 84.8483 223.777 84.6967 223.586 84.454C223.404 84.2027 223.313 83.8257 223.313 83.323V79.397H222.559C222.394 79.397 222.256 79.345 222.143 79.241C222.039 79.1283 221.987 78.9897 221.987 78.825C221.987 78.6603 222.039 78.526 222.143 78.422C222.256 78.318 222.394 78.266 222.559 78.266H223.313V77.174C223.313 77.0007 223.369 76.8533 223.482 76.732C223.603 76.6107 223.755 76.55 223.937 76.55C224.11 76.55 224.253 76.6107 224.366 76.732C224.487 76.8533 224.548 77.0007 224.548 77.174V78.266H225.627C225.792 78.266 225.926 78.3223 226.03 78.435C226.143 78.539 226.199 78.6733 226.199 78.838C226.199 79.0027 226.143 79.137 226.03 79.241C225.926 79.345 225.792 79.397 225.627 79.397H224.548Z" fill="#8438FF"/>
<g filter="url(#filter2_d_309_127)">
<path d="M179 28C179 16.9543 187.954 8 199 8H207C218.046 8 227 16.9543 227 28V36C227 47.0457 218.046 56 207 56H199C187.954 56 179 47.0457 179 36V28Z" fill="white"/>
<path d="M200.083 34.0417C200.083 35.1733 200.958 36.0833 202.032 36.0833H204.225C205.158 36.0833 205.917 35.29 205.917 34.2983C205.917 33.2367 205.45 32.8517 204.762 32.6067L201.25 31.3817C200.562 31.1367 200.095 30.7633 200.095 29.69C200.095 28.71 200.853 27.905 201.787 27.905H203.98C205.053 27.905 205.928 28.815 205.928 29.9467" stroke="#2F1155" stroke-width="1.5" stroke-linecap="round" stroke-linejoin="round"/>
<path d="M203 26.75V37.25" stroke="#2F1155" stroke-width="1.5" stroke-linecap="round" stroke-linejoin="round"/>
<path d="M214.667 32C214.667 38.44 209.44 43.6667 203 43.6667C196.56 43.6667 191.333 38.44 191.333 32C191.333 25.56 196.56 20.3333 203 20.3333" stroke="#2F1155" stroke-width="1.5" stroke-linecap="round" stroke-linejoin="round"/>
<path d="M214.667 25V20.3333H210" stroke="#2F1155" stroke-width="1.5" stroke-linecap="round" stroke-linejoin="round"/>
<path d="M208.833 26.1667L214.667 20.3333" stroke="#2F1155" stroke-width="1.5" stroke-linecap="round" stroke-linejoin="round"/>
</g>
<path d="M267.981 75.9C268.163 75.9 268.31 75.9563 268.423 76.069C268.544 76.173 268.605 76.316 268.605 76.498C268.605 76.68 268.544 76.823 268.423 76.927C268.31 77.031 268.163 77.083 267.981 77.083H265.667V84.376C265.667 84.5493 265.602 84.6967 265.472 84.818C265.351 84.9393 265.195 85 265.004 85C264.813 85 264.653 84.9393 264.523 84.818C264.402 84.6967 264.341 84.5493 264.341 84.376V77.083H262.04C261.858 77.083 261.706 77.031 261.585 76.927C261.472 76.8143 261.416 76.667 261.416 76.485C261.416 76.3117 261.472 76.173 261.585 76.069C261.706 75.9563 261.858 75.9 262.04 75.9H267.981ZM274.898 81.594C274.898 82.27 274.746 82.8767 274.443 83.414C274.14 83.9513 273.724 84.3717 273.195 84.675C272.675 84.9783 272.099 85.13 271.466 85.13C270.833 85.13 270.253 84.9783 269.724 84.675C269.204 84.3717 268.792 83.9513 268.489 83.414C268.186 82.8767 268.034 82.27 268.034 81.594C268.034 80.918 268.186 80.307 268.489 79.761C268.792 79.215 269.204 78.7903 269.724 78.487C270.253 78.1837 270.833 78.032 271.466 78.032C272.099 78.032 272.675 78.1837 273.195 78.487C273.724 78.7903 274.14 79.215 274.443 79.761C274.746 80.307 274.898 80.918 274.898 81.594ZM273.663 81.594C273.663 81.126 273.563 80.71 273.364 80.346C273.173 79.9733 272.909 79.6873 272.571 79.488C272.242 79.28 271.873 79.176 271.466 79.176C271.059 79.176 270.686 79.28 270.348 79.488C270.019 79.6873 269.754 79.9733 269.555 80.346C269.364 80.71 269.269 81.126 269.269 81.594C269.269 82.0533 269.364 82.465 269.555 82.829C269.754 83.193 270.019 83.479 270.348 83.687C270.686 83.8863 271.059 83.986 271.466 83.986C271.873 83.986 272.242 83.8863 272.571 83.687C272.909 83.479 273.173 83.193 273.364 82.829C273.563 82.465 273.663 82.0533 273.663 81.594ZM279.818 78.071C280.407 78.071 280.94 78.2227 281.417 78.526C281.893 78.8207 282.266 79.2367 282.535 79.774C282.812 80.3113 282.951 80.918 282.951 81.594C282.951 82.27 282.812 82.8767 282.535 83.414C282.266 83.9427 281.893 84.3587 281.417 84.662C280.94 84.9653 280.416 85.117 279.844 85.117C279.393 85.117 278.973 85.0173 278.583 84.818C278.193 84.6187 277.876 84.376 277.634 84.09V86.976C277.634 87.1493 277.573 87.2967 277.452 87.418C277.339 87.5393 277.192 87.6 277.01 87.6C276.836 87.6 276.689 87.5393 276.568 87.418C276.455 87.3053 276.399 87.158 276.399 86.976V78.799C276.399 78.617 276.455 78.4653 276.568 78.344C276.68 78.2227 276.828 78.162 277.01 78.162C277.192 78.162 277.339 78.2227 277.452 78.344C277.573 78.4653 277.634 78.617 277.634 78.799V79.176C277.842 78.8727 278.145 78.6127 278.544 78.396C278.942 78.1793 279.367 78.071 279.818 78.071ZM279.675 83.973C280.073 83.973 280.433 83.869 280.754 83.661C281.074 83.453 281.321 83.1713 281.495 82.816C281.677 82.452 281.768 82.0447 281.768 81.594C281.768 81.1433 281.677 80.7403 281.495 80.385C281.321 80.021 281.074 79.735 280.754 79.527C280.433 79.319 280.073 79.215 279.675 79.215C279.267 79.215 278.903 79.319 278.583 79.527C278.262 79.7263 278.011 80.008 277.829 80.372C277.655 80.736 277.569 81.1433 277.569 81.594C277.569 82.0447 277.655 82.452 277.829 82.816C278.011 83.18 278.262 83.466 278.583 83.674C278.903 83.8733 279.267 83.973 279.675 83.973ZM293.19 78.188C293.372 78.188 293.519 78.2487 293.632 78.37C293.753 78.4913 293.814 78.6387 293.814 78.812V82.27C293.814 83.1713 293.562 83.8733 293.06 84.376C292.566 84.87 291.864 85.117 290.954 85.117C290.052 85.117 289.355 84.87 288.861 84.376C288.367 83.8733 288.12 83.1713 288.12 82.27V78.812C288.12 78.6387 288.176 78.4913 288.289 78.37C288.41 78.2487 288.557 78.188 288.731 78.188C288.913 78.188 289.06 78.2487 289.173 78.37C289.294 78.4913 289.355 78.6387 289.355 78.812V82.27C289.355 83.4053 289.888 83.973 290.954 83.973C291.482 83.973 291.885 83.83 292.163 83.544C292.44 83.258 292.579 82.8333 292.579 82.27V78.812C292.579 78.6387 292.635 78.4913 292.748 78.37C292.869 78.2487 293.016 78.188 293.19 78.188ZM299.145 78.071C299.734 78.071 300.267 78.2227 300.744 78.526C301.22 78.8207 301.593 79.2367 301.862 79.774C302.139 80.3113 302.278 80.918 302.278 81.594C302.278 82.27 302.139 82.8767 301.862 83.414C301.593 83.9427 301.22 84.3587 300.744 84.662C300.267 84.9653 299.743 85.117 299.171 85.117C298.72 85.117 298.3 85.0173 297.91 84.818C297.52 84.6187 297.203 84.376 296.961 84.09V86.976C296.961 87.1493 296.9 87.2967 296.779 87.418C296.666 87.5393 296.519 87.6 296.337 87.6C296.163 87.6 296.016 87.5393 295.895 87.418C295.782 87.3053 295.726 87.158 295.726 86.976V78.799C295.726 78.617 295.782 78.4653 295.895 78.344C296.007 78.2227 296.155 78.162 296.337 78.162C296.519 78.162 296.666 78.2227 296.779 78.344C296.9 78.4653 296.961 78.617 296.961 78.799V79.176C297.169 78.8727 297.472 78.6127 297.871 78.396C298.269 78.1793 298.694 78.071 299.145 78.071ZM299.002 83.973C299.4 83.973 299.76 83.869 300.081 83.661C300.401 83.453 300.648 83.1713 300.822 82.816C301.004 82.452 301.095 82.0447 301.095 81.594C301.095 81.1433 301.004 80.7403 300.822 80.385C300.648 80.021 300.401 79.735 300.081 79.527C299.76 79.319 299.4 79.215 299.002 79.215C298.594 79.215 298.23 79.319 297.91 79.527C297.589 79.7263 297.338 80.008 297.156 80.372C296.982 80.736 296.896 81.1433 296.896 81.594C296.896 82.0447 296.982 82.452 297.156 82.816C297.338 83.18 297.589 83.466 297.91 83.674C298.23 83.8733 298.594 83.973 299.002 83.973Z" fill="#8438FF"/>
<g filter="url(#filter3_d_309_127)">
<path d="M256 28C256 16.9543 264.954 8 276 8H284C295.046 8 304 16.9543 304 28V36C304 47.0457 295.046 56 284 56H276C264.954 56 256 47.0457 256 36V28Z" fill="white"/>
<path d="M280 43.6667C286.417 43.6667 291.667 38.4167 291.667 32C291.667 25.5833 286.417 20.3333 280 20.3333C273.583 20.3333 268.333 25.5833 268.333 32C268.333 38.4167 273.583 43.6667 280 43.6667Z" stroke="#2F1155" stroke-width="1.5" stroke-linecap="round" stroke-linejoin="round"/>
<path d="M275.333 32H284.667" stroke="#2F1155" stroke-width="1.5" stroke-linecap="round" stroke-linejoin="round"/>
<path d="M280 36.6667V27.3333" stroke="#2F1155" stroke-width="1.5" stroke-linecap="round" stroke-linejoin="round"/>
</g>
<defs>
<filter id="filter0_d_309_127" x="0" y="0" width="72" height="72" filterUnits="userSpaceOnUse" color-interpolation-filters="sRGB">
<feFlood flood-opacity="0" result="BackgroundImageFix"/>
<feColorMatrix in="SourceAlpha" type="matrix" values="0 0 0 0 0 0 0 0 0 0 0 0 0 0 0 0 0 0 127 0" result="hardAlpha"/>
<feOffset dy="4"/>
<feGaussianBlur stdDeviation="6"/>
<feComposite in2="hardAlpha" operator="out"/>
<feColorMatrix type="matrix" values="0 0 0 0 0.153701 0 0 0 0 0.134062 0 0 0 0 0.275 0 0 0 0.1 0"/>
<feBlend mode="normal" in2="BackgroundImageFix" result="effect1_dropShadow_309_127"/>
<feBlend mode="normal" in="SourceGraphic" in2="effect1_dropShadow_309_127" result="shape"/>
</filter>
<filter id="filter1_d_309_127" x="83" y="0" width="72" height="72" filterUnits="userSpaceOnUse" color-interpolation-filters="sRGB">
<feFlood flood-opacity="0" result="BackgroundImageFix"/>
<feColorMatrix in="SourceAlpha" type="matrix" values="0 0 0 0 0 0 0 0 0 0 0 0 0 0 0 0 0 0 127 0" result="hardAlpha"/>
<feOffset dy="4"/>
<feGaussianBlur stdDeviation="6"/>
<feComposite in2="hardAlpha" operator="out"/>
<feColorMatrix type="matrix" values="0 0 0 0 0.153701 0 0 0 0 0.134062 0 0 0 0 0.275 0 0 0 0.1 0"/>
<feBlend mode="normal" in2="BackgroundImageFix" result="effect1_dropShadow_309_127"/>
<feBlend mode="normal" in="SourceGraphic" in2="effect1_dropShadow_309_127" result="shape"/>
</filter>
<filter id="filter2_d_309_127" x="167" y="0" width="72" height="72" filterUnits="userSpaceOnUse" color-interpolation-filters="sRGB">
<feFlood flood-opacity="0" result="BackgroundImageFix"/>
<feColorMatrix in="SourceAlpha" type="matrix" values="0 0 0 0 0 0 0 0 0 0 0 0 0 0 0 0 0 0 127 0" result="hardAlpha"/>
<feOffset dy="4"/>
<feGaussianBlur stdDeviation="6"/>
<feComposite in2="hardAlpha" operator="out"/>
<feColorMatrix type="matrix" values="0 0 0 0 0.153701 0 0 0 0 0.134062 0 0 0 0 0.275 0 0 0 0.1 0"/>
<feBlend mode="normal" in2="BackgroundImageFix" result="effect1_dropShadow_309_127"/>
<feBlend mode="normal" in="SourceGraphic" in2="effect1_dropShadow_309_127" result="shape"/>
</filter>
<filter id="filter3_d_309_127" x="244" y="0" width="72" height="72" filterUnits="userSpaceOnUse" color-interpolation-filters="sRGB">
<feFlood flood-opacity="0" result="BackgroundImageFix"/>
<feColorMatrix in="SourceAlpha" type="matrix" values="0 0 0 0 0 0 0 0 0 0 0 0 0 0 0 0 0 0 127 0" result="hardAlpha"/>
<feOffset dy="4"/>
<feGaussianBlur stdDeviation="6"/>
<feComposite in2="hardAlpha" operator="out"/>
<feColorMatrix type="matrix" values="0 0 0 0 0.153701 0 0 0 0 0.134062 0 0 0 0 0.275 0 0 0 0.1 0"/>
<feBlend mode="normal" in2="BackgroundImageFix" result="effect1_dropShadow_309_127"/>
<feBlend mode="normal" in="SourceGraphic" in2="effect1_dropShadow_309_127" result="shape"/>
</filter>
</defs>
</svg>
