<svg width="351" height="102" viewBox="0 0 351 102" fill="none" xmlns="http://www.w3.org/2000/svg">
<g filter="url(#filter0_d_309_113)">
<path d="M12 34C12 17.4315 25.4315 4 42 4H309C325.569 4 339 17.4315 339 34V52C339 68.5685 325.569 82 309 82H42C25.4315 82 12 68.5685 12 52V34Z" fill="#2F1155"/>
<path d="M77.6667 41.7983V44.2017C77.6667 44.8433 77.1533 45.3683 76.5 45.3917H74.2133C72.9533 45.3917 71.7983 44.47 71.6933 43.21C71.6233 42.475 71.9033 41.7867 72.3933 41.3083C72.825 40.865 73.42 40.6083 74.0733 40.6083H76.5C77.1533 40.6317 77.6667 41.1567 77.6667 41.7983Z" fill="white"/>
<path d="M75.8817 47.1417H74.2133C71.9967 47.1417 70.13 45.4733 69.9433 43.35C69.8383 42.1367 70.2817 40.9233 71.1683 40.06C71.915 39.29 72.9533 38.8583 74.0733 38.8583H75.8817C76.22 38.8583 76.5 38.5783 76.465 38.24C76.2083 35.405 74.33 33.4683 71.5417 33.1417C71.2617 33.095 70.97 33.0833 70.6667 33.0833H60.1667C59.84 33.0833 59.525 33.1067 59.2217 33.1533C56.2467 33.5267 54.3333 35.7433 54.3333 38.9167V47.0833C54.3333 50.3033 56.9467 52.9167 60.1667 52.9167H70.6667C73.9333 52.9167 76.185 50.875 76.465 47.76C76.5 47.4217 76.22 47.1417 75.8817 47.1417ZM67.1667 40.375H60.1667C59.6883 40.375 59.2917 39.9783 59.2917 39.5C59.2917 39.0217 59.6883 38.625 60.1667 38.625H67.1667C67.645 38.625 68.0417 39.0217 68.0417 39.5C68.0417 39.9783 67.645 40.375 67.1667 40.375Z" fill="white"/>
<path d="M135.5 54.6667H142.5C148.333 54.6667 150.667 52.3333 150.667 46.5V39.5C150.667 33.6667 148.333 31.3333 142.5 31.3333H135.5C129.667 31.3333 127.333 33.6667 127.333 39.5V46.5C127.333 52.3333 129.667 54.6667 135.5 54.6667Z" stroke="white" stroke-width="2" stroke-linecap="round" stroke-linejoin="round"/>
<path d="M143.083 50.5833C144.367 50.5833 145.417 49.5333 145.417 48.25V37.75C145.417 36.4667 144.367 35.4167 143.083 35.4167C141.8 35.4167 140.75 36.4667 140.75 37.75V48.25C140.75 49.5333 141.788 50.5833 143.083 50.5833Z" stroke="white" stroke-width="2" stroke-linecap="round" stroke-linejoin="round"/>
<path d="M134.917 50.5833C136.2 50.5833 137.25 49.5333 137.25 48.25V44.1667C137.25 42.8833 136.2 41.8333 134.917 41.8333C133.633 41.8333 132.583 42.8833 132.583 44.1667V48.25C132.583 49.5333 133.622 50.5833 134.917 50.5833Z" stroke="white" stroke-width="2" stroke-linecap="round" stroke-linejoin="round"/>
<path d="M212 36.5133V40.3983" stroke="white" stroke-width="2" stroke-miterlimit="10" stroke-linecap="round"/>
<path d="M212.023 31.3333C207.73 31.3333 204.253 34.81 204.253 39.1033V41.5533C204.253 42.3467 203.927 43.5367 203.518 44.2133L202.037 46.6867C201.127 48.215 201.757 49.9183 203.437 50.4783C209.013 52.3333 215.045 52.3333 220.622 50.4783C222.197 49.9533 222.873 48.11 222.022 46.6867L220.54 44.2133C220.132 43.5367 219.805 42.335 219.805 41.5533V39.1033C219.793 34.8333 216.293 31.3333 212.023 31.3333Z" stroke="white" stroke-width="2" stroke-miterlimit="10" stroke-linecap="round"/>
<path d="M215.885 50.9567C215.885 53.0917 214.135 54.8417 212 54.8417C210.938 54.8417 209.958 54.3983 209.258 53.6983C208.558 52.9983 208.115 52.0183 208.115 50.9567" stroke="white" stroke-width="2" stroke-miterlimit="10"/>
<path d="M274.5 39.6283V46.36C274.5 48.8333 274.5 48.8333 276.833 50.4083L283.25 54.1183C284.218 54.6783 285.793 54.6783 286.75 54.1183L293.167 50.4083C295.5 48.8333 295.5 48.8333 295.5 46.3717V39.6283C295.5 37.1667 295.5 37.1667 293.167 35.5917L286.75 31.8817C285.793 31.3217 284.218 31.3217 283.25 31.8817L276.833 35.5917C274.5 37.1667 274.5 37.1667 274.5 39.6283Z" stroke="white" stroke-width="2" stroke-linecap="round" stroke-linejoin="round"/>
<path d="M285 46.5C286.933 46.5 288.5 44.933 288.5 43C288.5 41.067 286.933 39.5 285 39.5C283.067 39.5 281.5 41.067 281.5 43C281.5 44.933 283.067 46.5 285 46.5Z" stroke="white" stroke-width="2" stroke-linecap="round" stroke-linejoin="round"/>
</g>
<defs>
<filter id="filter0_d_309_113" x="0" y="0" width="351" height="102" filterUnits="userSpaceOnUse" color-interpolation-filters="sRGB">
<feFlood flood-opacity="0" result="BackgroundImageFix"/>
<feColorMatrix in="SourceAlpha" type="matrix" values="0 0 0 0 0 0 0 0 0 0 0 0 0 0 0 0 0 0 127 0" result="hardAlpha"/>
<feOffset dy="8"/>
<feGaussianBlur stdDeviation="6"/>
<feComposite in2="hardAlpha" operator="out"/>
<feColorMatrix type="matrix" values="0 0 0 0 0.153701 0 0 0 0 0.134062 0 0 0 0 0.275 0 0 0 0.1 0"/>
<feBlend mode="normal" in2="BackgroundImageFix" result="effect1_dropShadow_309_113"/>
<feBlend mode="normal" in="SourceGraphic" in2="effect1_dropShadow_309_113" result="shape"/>
</filter>
</defs>
</svg>
